/vscmnt/brussel_pixiu_data/_data_brussel/112/vsc11236/PredSimResults/SUBJ06opt3D/trackIG/worker_08.mot
version=1
nRows=4
nColumns=50
inDegrees=yes
endheader
                time	         pelvis_tilt	         pelvis_list	     pelvis_rotation	           pelvis_tx	           pelvis_ty	           pelvis_tz	       hip_flexion_r	     hip_adduction_r	      hip_rotation_r	        knee_angle_r	       ankle_angle_r	         mtp_angle_r	       hip_flexion_l	     hip_adduction_l	      hip_rotation_l	        knee_angle_l	       ankle_angle_l	         mtp_angle_l	    lumbar_extension	      lumbar_bending	     lumbar_rotation	 ercspn_r/activation	 intobl_r/activation	 extobl_r/activation	    abd_r/activation	    add_r/activation	hamstrings_r/activation	bifemsh_r/activation	glut_max_r/activation	iliopsoas_r/activation	rect_fem_r/activation	  vasti_r/activation	gastroc_r/activation	 soleus_r/activation	tib_ant_r/activation	 ercspn_l/activation	 intobl_l/activation	 extobl_l/activation	    abd_l/activation	    add_l/activation	hamstrings_l/activation	bifemsh_l/activation	glut_max_l/activation	iliopsoas_l/activation	rect_fem_l/activation	  vasti_l/activation	gastroc_l/activation	 soleus_l/activation	tib_ant_l/activation	
          0.00000000	         -6.96438589	         -1.25599020	          6.03491770	          0.00000000	          0.92304908	         -0.01019889	         34.29870422	         -1.19427793	         -8.54990406	         -8.00697438	          0.91596331	          0.23714489	        -11.09286641	         -1.04224156	         -4.97814102	        -11.08091666	          7.42092324	         35.80501431	         -5.95092275	          0.21986225	         -8.15975073	          0.19042816	          0.15422364	          0.00999999	          0.01000000	          0.32193125	          0.08535296	          0.15961762	          0.00999999	          0.11374423	          0.00999999	          0.00999999	          0.01364198	          0.00999999	          0.55635894	          0.15212926	          0.00999999	          0.00999999	          0.06834219	          0.00999999	          0.01319048	          0.24468667	          0.01692018	          0.60227305	          0.01000002	          0.00999999	          0.23851919	          0.37640564	          0.02402565	
          0.01149676	         -7.02276188	         -1.22841705	          6.07012273	          0.01794454	          0.92124513	         -0.00969878	         34.47573144	         -1.08321626	         -8.65125446	         -9.96743335	          0.60201868	          0.23106265	        -11.48323079	         -1.20584124	         -5.36238225	        -12.14796422	          6.15437832	         37.89288036	         -5.66168845	          0.56272836	         -8.59933487	          0.16384452	          0.12942430	          0.00999999	          0.00999999	          0.42390431	          0.08210448	          0.13395092	          0.12484127	          0.09545403	          0.00999999	          0.00999999	          0.01419942	          0.01419940	          0.57985272	          0.21140105	          0.00999999	          0.00999999	          0.05735269	          0.01191612	          0.01260963	          0.20534077	          0.01419939	          0.60693832	          0.01000000	          0.00999999	          0.20016503	          0.34822399	          0.02016230	
          0.02299352	         -7.05354132	         -1.25210878	          6.08391646	          0.03632226	          0.91962495	         -0.00914560	         34.40438739	         -1.01255334	         -8.54001002	        -11.81678786	          0.36628052	          0.20010867	        -11.71403273	         -1.45521228	         -5.74929763	        -13.57309522	          4.76744731	         39.97492882	         -5.34561209	          0.96403125	         -8.99651901	          0.15891906	          0.10861272	          0.00999999	          0.08354812	          0.35574001	          0.08343053	          0.11241146	          0.12304099	          0.08010491	          0.00999999	          0.00999999	          0.01191614	          0.01191612	          0.64178276	          0.18600659	          0.00999999	          0.00999999	          0.04813031	          0.00999999	          0.01058199	          0.20379631	          0.01191612	          0.61926063	          0.00999999	          0.00999999	          0.16797826	          0.30319745	          0.01692018	
          0.03449029	         -7.06089325	         -1.28886845	          6.06397015	          0.05484838	          0.91828672	         -0.00845184	         34.20873258	         -0.92877359	         -8.50030514	        -13.48470603	          0.01153751	          0.18486404	        -11.68677081	         -1.75936607	         -6.14497010	        -15.49441264	          3.23434452	         42.00806498	         -5.03936440	          1.37148565	         -9.33897244	          0.18207110	          0.09114767	          0.00999999	          0.13656758	          0.36393232	          0.08016803	          0.09433557	          0.22223858	          0.06722395	          0.00999999	          0.01383078	          0.01000001	          0.00999999	          0.68835369	          0.21236717	          0.00999999	          0.00999999	          0.04039090	          0.00999999	          0.00999999	          0.19538124	          0.00999999	          0.54723701	          0.00999999	          0.00999999	          0.14096716	          0.25444295	          0.01419939	
